{"title":"Off.the.Air.Season.4.1080p.WEBRip.AVC.ACC","uid":14857655,"size":1035771782,"categoryP":"video","categoryS":"tv_shows","magnet":"?xt=urn:btih:7563f0c316290809e7abc954f798b7ae17a7029a&amp;dn=Off.the.Air.Season.4.1080p.WEBRip.AVC.ACC&amp;tr=udp%3A%2F%2Ftracker.leechers-paradise.org%3A6969&amp;tr=udp%3A%2F%2Fzer0day.ch%3A1337&amp;tr=udp%3A%2F%2Fopen.demonii.com%3A1337&amp;tr=udp%3A%2F%2Ftracker.coppersurfer.tk%3A6969&amp;tr=udp%3A%2F%2Fexodus.desync.com%3A6969","seeders":2,"leechers":0,"uploader":"carl00","files":4,"time":1465496619,"description":"General\r\nComplete name                            : Death | Off the Air | Adult Swim.mp4\r\nFormat                                   : MPEG-4\r\nFormat profile                           : Base Media\r\nCodec ID                                 : isom (isom/iso2/avc1/mp41)\r\nFile size                                : 209 MiB\r\nDuration                                 : 10mn 49s\r\nOverall bit rate                         : 2 705 Kbps\r\nWriting application                      : Lavf57.25.100\r\n\r\nVideo\r\nID                                       : 1\r\nFormat                                   : AVC\r\nFormat/Info                              : Advanced Video Codec\r\nFormat profile                           :   \r\nFormat settings, CABAC                   : Yes\r\nFormat settings, ReFrames                : 3 frames\r\nCodec ID                                 : avc1\r\nCodec ID/Info                            : Advanced Video Coding\r\nDuration                                 : 10mn 49s\r\nBit rate                                 : 2 571 Kbps\r\nWidth                                    : 1 920 pixels\r\nHeight                                   : 1 080 pixels\r\nDisplay aspect ratio                     : 16:9\r\nFrame rate mode                          : Constant\r\nFrame rate                               : 29.970 (30000/1001) fps\r\nColor space                              : YUV\r\nChroma subsampling                       : 4:2:0\r\nBit depth                                : 8 bits\r\nScan type                                : Progressive\r\nBits/(Pixel*Frame)                       : 0.041\r\nStream size                              : 199 MiB (95%)\r\n\r\nAudio\r\nID                                       : 2\r\nFormat                                   : AAC\r\nFormat/Info                              : Advanced Audio Codec\r\nFormat profile                           : LC\r\nCodec ID                                 : 40\r\nDuration                                 : 10mn 49s\r\nBit rate mode                            : Constant\r\nBit rate                                 : 126 Kbps\r\nChannel(s)                               : 2 channels\r\nChannel positions                        : Front: L R\r\nSampling rate                            : 44.1 KHz\r\nFrame rate                               : 43.066 fps (1024 spf)\r\nCompression mode                         : Lossy\r\nStream size                              : 9.73 MiB (5%)\r\nDefault                                  : Yes\r\nAlternate group                          : 1\r\n\r\n_________________________________________________________________________________\r\n\r\n\r\nRipped from youtube - not transcoded - using Downie","torrent":{"xt":"urn:btih:7563f0c316290809e7abc954f798b7ae17a7029a","amp;dn":"Off.the.Air.Season.4.1080p.WEBRip.AVC.ACC","amp;tr":["udp%3A%2F%2Ftracker.leechers-paradise.org%3A6969","udp%3A%2F%2Fzer0day.ch%3A1337","udp%3A%2F%2Fopen.demonii.com%3A1337","udp%3A%2F%2Ftracker.coppersurfer.tk%3A6969","udp%3A%2F%2Fexodus.desync.com%3A6969"],"infoHash":"7563f0c316290809e7abc954f798b7ae17a7029a","infoHashBuffer":{"type":"Buffer","data":[117,99,240,195,22,41,8,9,231,171,201,84,247,152,183,174,23,167,2,154]},"announce":[],"urlList":[]}}